<?xml version="1.0" standalone="no"?>
<!DOCTYPE svg PUBLIC "-//W3C//DTD SVG 20010904//EN"
 "http://www.w3.org/TR/2001/REC-SVG-20010904/DTD/svg10.dtd">
<svg version="1.0" xmlns="http://www.w3.org/2000/svg"
 width="2480.000000pt" height="2480.000000pt" viewBox="0 0 2480.000000 2480.000000"
 preserveAspectRatio="xMidYMid meet">
<metadata>
Created by potrace 1.11, written by Peter Selinger 2001-2013
</metadata>
<g transform="translate(0.000000,2480.000000) scale(0.100000,-0.100000)"
fill="#000000" stroke="none">
<path d="M4049 24536 c-2 -2 -38 -7 -79 -10 -41 -4 -93 -8 -115 -11 -72 -9
-119 -15 -160 -21 -66 -9 -245 -45 -330 -65 -44 -11 -89 -22 -100 -24 -91 -20
-380 -119 -525 -180 -89 -37 -352 -166 -425 -209 -33 -19 -73 -43 -90 -52 -69
-38 -307 -203 -406 -280 -239 -187 -490 -433 -655 -643 -11 -13 -30 -38 -44
-55 -191 -234 -404 -595 -538 -911 -71 -168 -165 -440 -187 -544 -2 -9 -13
-52 -24 -96 -11 -44 -22 -93 -25 -110 -3 -16 -8 -41 -11 -55 -3 -14 -10 -52
-15 -85 -5 -33 -12 -71 -15 -84 -2 -13 -7 -49 -10 -80 -4 -31 -8 -67 -11 -81
-2 -14 -7 -68 -11 -120 -10 -122 -10 -16715 -1 -16835 10 -114 19 -192 44
-355 9 -55 54 -270 70 -328 8 -28 21 -78 29 -110 83 -307 266 -719 458 -1027
332 -532 797 -990 1343 -1323 176 -107 342 -189 609 -302 169 -71 493 -165
710 -205 50 -10 97 -18 105 -20 20 -4 153 -23 210 -30 25 -3 86 -8 135 -13
120 -9 16692 -9 16820 1 223 17 476 58 670 107 22 6 49 13 61 15 26 6 184 55
284 88 233 78 505 206 779 368 47 27 247 162 301 203 263 197 467 390 711 673
85 98 298 399 353 498 9 17 26 46 38 65 139 230 308 634 391 935 37 130 82
342 92 424 3 23 7 46 9 50 2 3 7 37 11 74 3 37 8 78 11 90 2 12 8 67 12 122 9
134 9 16715 -1 16830 -4 50 -9 104 -12 120 -2 17 -9 71 -15 120 -38 300 -151
719 -260 970 -10 22 -32 74 -50 115 -249 572 -681 1128 -1185 1524 -60 47
-115 90 -121 95 -39 31 -228 155 -331 217 -127 76 -430 228 -518 259 -27 10
-54 22 -60 25 -5 4 -19 10 -30 13 -11 3 -51 17 -90 31 -70 27 -274 89 -350
108 -22 5 -47 11 -55 14 -40 10 -260 54 -295 59 -22 4 -67 10 -100 15 -33 5
-87 12 -120 15 -33 4 -76 9 -95 13 -37 7 -16784 15 -16791 8z"/>
</g>
</svg>
